<svg xmlns="http://www.w3.org/2000/svg" width="69" height="69">
    <defs>
        <style>
            .cls-2{fill:#414141}
        </style>
    </defs>
    <g id="AIF" transform="translate(-336 -335.316)">
        <g id="Group_3203" data-name="Group 3203" transform="translate(336 335.316)">
            <g id="_024-earn-money" data-name="024-earn-money">
                <rect id="Rectangle_976" data-name="Rectangle 976" width="69" height="69" rx="34.5" style="fill:#edf3f8"/>
                <path id="Path_5838" data-name="Path 5838" class="cls-2" d="M38.19 12.38A6.19 6.19 0 1 0 32 6.19a6.2 6.2 0 0 0 6.19 6.19zm0-10.195a4.005 4.005 0 1 1-4.005 4.005 4.01 4.01 0 0 1 4.005-4.005z" transform="translate(-15.573 14.947)"/>
                <path id="Path_5839" data-name="Path 5839" class="cls-2" d="M232.559 21.118A10.559 10.559 0 1 0 222 10.559a10.571 10.571 0 0 0 10.559 10.559zm0-18.933a8.374 8.374 0 1 1-8.374 8.374 8.384 8.384 0 0 1 8.374-8.374z" transform="translate(-191.737 14.947)"/>
                <path id="Path_5840" data-name="Path 5840" class="cls-2" d="M323.648 66.02a3.93 3.93 0 0 0 2.066.746v.613a.728.728 0 1 0 1.456 0V66.7a3.275 3.275 0 0 0 2.466-2.631 2.843 2.843 0 0 0-1.957-3.255 26.607 26.607 0 0 1-.509-.185v-2.9a1.352 1.352 0 0 1 .586.308.728.728 0 0 0 1.1-.96 2.805 2.805 0 0 0-1.681-.835v-.515a.728.728 0 1 0-1.456 0v.6a5.213 5.213 0 0 0-.229.062 2.7 2.7 0 0 0-1.85 2.117 2.387 2.387 0 0 0 .785 2.352 6.17 6.17 0 0 0 1.295.748v3.7a2.549 2.549 0 0 1-1.268-.5.728.728 0 0 0-.8 1.219zm3.522-3.84.024.009a1.415 1.415 0 0 1 1.006 1.64 1.811 1.811 0 0 1-1.03 1.347zm-1.852-2.467a.964.964 0 0 1-.253-.936 1.3 1.3 0 0 1 .648-.915v2.114a3.454 3.454 0 0 1-.395-.264z" transform="translate(-285.677 -36.048)"/>
                <path id="Path_5841" data-name="Path 5841" class="cls-2" d="m32.482 267.363-7.138 3.41a3.641 3.641 0 0 0-3-3.825l-4.351-.767a2.908 2.908 0 0 1-1.479-.737 8.246 8.246 0 0 0-8.283-1.758v-.594A1.092 1.092 0 0 0 7.138 262H1.092A1.092 1.092 0 0 0 0 263.092v14.564a1.092 1.092 0 0 0 1.092 1.092h6.046a1.092 1.092 0 0 0 1.092-1.092v-.4l7.407 2.262a15.833 15.833 0 0 0 13.226-1.849l6.888-4.457a3.355 3.355 0 0 0-3.269-5.845zm-26.436 9.2H2.185v-12.38h3.861zm28.519-5.19-6.888 4.457a13.646 13.646 0 0 1-11.4 1.594l-8.045-2.457v-8.922a6.059 6.059 0 0 1 6.795 1 5.087 5.087 0 0 0 2.588 1.289l4.351.767a1.456 1.456 0 0 1-.491 2.87l-6.554-1.155a1.092 1.092 0 0 0-.379 2.151l6.518 1.149a5.432 5.432 0 0 0 3.3-.451l9.064-4.33a1.171 1.171 0 0 1 1.141 2.04z" transform="translate(14.097 -227.974)"/>
            </g>
        </g>
    </g>
</svg>
