<svg xmlns="http://www.w3.org/2000/svg" width="24" height="24">
    <path data-name="Rectangle 958" style="fill:none" d="M0 0h24v24H0z"/>
    <g style="fill:none">
        <path d="M.916 17A1.006 1.006 0 0 1 0 16V2a2 2 0 0 1 2-2h8a2 2 0 0 1 2 2v14a1.006 1.006 0 0 1-.915 1 1.159 1.159 0 0 0-.094-.1l-4.3-4.1a1 1 0 0 0-1.379 0l-4.3 4.1a1.072 1.072 0 0 0-.094.1z" style="stroke:none" transform="translate(6 4)"/>
        <path d="M10.6 14.594V2a.6.6 0 0 0-.6-.6H2a.6.6 0 0 0-.6.6v12.594l2.945-2.805A2.389 2.389 0 0 1 6 11.126c.62 0 1.207.236 1.655.663l2.946 2.805M.916 17A1.006 1.006 0 0 1 0 16.003V2C0 .897.897 0 2 0h8c1.103 0 2 .897 2 2v14.003c0 .516-.402.954-.915.997a1.159 1.159 0 0 0-.094-.102L6.69 12.803a.995.995 0 0 0-1.38 0l-4.3 4.095A1.073 1.073 0 0 0 .916 17z" style="fill:#6094e1;stroke:none" transform="translate(6 4)"/>
    </g>
</svg>
